<svg width="36" height="41" viewBox="0 0 36 41" fill="none" xmlns="http://www.w3.org/2000/svg">
<path d="M31.3526 22.6321C30.9566 22.6321 30.5427 22.4881 30.1467 22.3852C29.3445 22.1804 28.556 21.9123 27.7876 21.5828C26.9517 21.2356 26.0326 21.2536 25.208 21.6334C24.3834 22.0133 23.7118 22.7281 23.3202 23.6402L22.9242 24.5867C21.175 23.4534 19.5594 22.0707 18.1148 20.4718C16.7155 18.8225 15.5049 16.9766 14.5127 14.9783L15.3418 14.5463C16.1406 14.0996 16.766 13.3314 17.0979 12.3894C17.431 11.4475 17.4468 10.3982 17.143 9.44371C16.8561 8.55708 16.622 7.64983 16.4398 6.72797C16.3497 6.2753 16.2777 5.80201 16.2238 5.34934C16.0055 3.90012 15.3407 2.58774 14.3508 1.64859C13.3596 0.709302 12.1075 0.205002 10.8205 0.226271H5.39918C4.63754 0.225246 3.88492 0.40795 3.18968 0.762472C2.49442 1.11699 1.87232 1.63552 1.36496 2.28383C0.847463 2.94969 0.461586 3.73587 0.23434 4.58816C0.00709463 5.44057 -0.0559131 6.33899 0.049847 7.22177C1.0297 15.7851 4.45416 23.7404 9.79448 29.8538C15.146 35.9538 22.1097 39.8662 29.6066 40.9847C29.8396 41.0051 30.0747 41.0051 30.3087 40.9847C31.6362 40.9869 32.9187 40.4302 33.9109 39.421C34.4778 38.8412 34.9324 38.1308 35.2429 37.3365C35.5533 36.5423 35.7131 35.682 35.712 34.8123V28.6399C35.7018 27.2182 35.2632 25.8441 34.4689 24.7494C33.6747 23.6548 32.5743 22.907 31.3526 22.6321ZM32.2358 34.9768C32.2345 35.264 32.1817 35.5478 32.0794 35.81C31.977 36.0722 31.8274 36.307 31.6417 36.4995C31.4438 36.7049 31.2086 36.8576 30.9532 36.9465C30.6978 37.0356 30.429 37.0585 30.1647 37.0138C23.4428 36.0111 17.1969 32.5121 12.3876 27.0556C7.57375 21.557 4.48454 14.3969 3.59805 6.68671C3.55979 6.38498 3.57894 6.0771 3.65769 5.78523C3.73531 5.49349 3.86918 5.22519 4.04917 4.99969C4.21903 4.78393 4.42717 4.61186 4.66004 4.49488C4.89291 4.37778 5.14492 4.31845 5.39918 4.32063H10.8024C11.2186 4.3091 11.6259 4.46259 11.9544 4.75523C12.283 5.04787 12.5125 5.46133 12.6036 5.92553C12.6036 6.48108 12.7655 7.05713 12.8735 7.61268C13.0817 8.69046 13.3596 9.74942 13.7026 10.7811L11.1805 12.1391C10.7474 12.3664 10.411 12.7807 10.2445 13.2912C10.0645 13.7921 10.0645 14.354 10.2445 14.8549C12.8365 21.1975 17.2994 26.296 22.8523 29.2571C23.2911 29.463 23.7825 29.463 24.2213 29.2571C24.668 29.0671 25.0301 28.6823 25.2293 28.1872L26.3645 25.3069C27.2936 25.6939 28.2443 26.01 29.2095 26.2532C29.6786 26.3767 30.1826 26.4796 30.6687 26.5618C31.0747 26.6664 31.437 26.9285 31.6935 27.3037C31.9489 27.6788 32.0839 28.1437 32.0737 28.6193L32.2358 34.9768ZM21.6091 0C21.1952 0 20.7632 0 20.348 0C19.8711 0.0463812 19.4289 0.307626 19.1196 0.726338C18.8113 1.14492 18.6595 1.68664 18.701 2.23232C18.7415 2.778 18.9698 3.28295 19.3366 3.63593C19.7022 3.98904 20.177 4.16137 20.6552 4.11499H21.6091C24.4756 4.11499 27.224 5.41559 29.2512 7.73068C31.2772 10.0458 32.4158 13.1857 32.4158 16.4597C32.4158 16.8301 32.4158 17.1798 32.4158 17.5502C32.3764 18.0929 32.5259 18.6317 32.8331 19.0482C33.1403 19.4648 33.5801 19.7251 34.0549 19.7722H34.1988C34.6499 19.7743 35.0853 19.5831 35.4183 19.2366C35.7514 18.8899 35.9595 18.413 36 17.9C36 17.4267 36 16.9329 36 16.4597C36 12.0979 34.4846 7.91441 31.7857 4.82826C29.0881 1.74199 25.4274 0.00550937 21.6091 0ZM25.2114 16.4597C25.2114 17.0054 25.4014 17.5287 25.739 17.9146C26.0765 18.3005 26.5342 18.5171 27.0124 18.5171C27.4905 18.5171 27.9484 18.3005 28.2859 17.9146C28.6235 17.5287 28.8135 17.0054 28.8135 16.4597C28.8135 14.277 28.0541 12.1837 26.7031 10.6403C25.352 9.09687 23.5205 8.22985 21.6091 8.22985C21.1321 8.22985 20.6731 8.44664 20.3357 8.83243C19.9981 9.21834 19.808 9.7416 19.808 10.2873C19.808 10.833 19.9981 11.3564 20.3357 11.7421C20.6731 12.1281 21.1321 12.3448 21.6091 12.3448C22.5643 12.3448 23.4811 12.7783 24.1561 13.55C24.8322 14.3217 25.2114 15.3683 25.2114 16.4597Z" fill="white"/>
</svg>
