<svg width="27" height="34" viewBox="0 0 27 34" fill="none" xmlns="http://www.w3.org/2000/svg">
<path d="M23.439 4.38761C22.578 3.47541 21.378 2.3184 19.731 1.46154C18.137 0.63231 16.5449 0.208254 14.4049 0.0420293C14.0459 0.0141099 13.6839 0 13.3299 0C8.90184 0 5.82781 2.13081 4.02879 3.91835C2.01676 5.91662 -0.308281 9.29477 0.0337232 14.0407C0.286727 17.5456 2.30775 20.3007 3.93078 22.5144L3.99978 22.6092C4.28978 23.0039 4.59078 23.3904 4.90979 23.8005C5.9138 25.0885 6.95182 26.4203 7.69683 28.112L7.78283 28.3057C8.08784 28.9923 8.46584 29.8468 8.42084 30.2866C8.38784 30.6009 8.25083 30.7545 8.09283 30.9324C7.87383 31.1794 7.60082 31.4868 7.77582 32.1453C8.00383 33 9.08784 33 10.3429 33H16.8849C17.92 33 18.991 33 19.219 32.145C19.391 31.5017 19.092 31.141 18.852 30.8514C18.716 30.6876 18.599 30.5461 18.573 30.3685C18.451 29.5099 19.384 27.5601 20.303 26.1119C20.884 25.1978 21.506 24.4039 22.109 23.6364C22.387 23.2816 22.651 22.9463 22.9 22.6111C23.032 22.4336 23.165 22.2561 23.299 22.0791C24.969 19.8544 26.6961 17.5545 26.9611 14.135C27.3361 9.29834 24.915 5.95189 23.439 4.38761ZM20.948 20.8832C20.828 21.0401 20.709 21.1966 20.59 21.3529C20.382 21.6269 20.174 21.8989 19.965 22.1689C18.09 24.6032 16.3179 26.9057 15.9029 30.4076H11.0879C10.5709 26.7051 8.76484 24.3438 6.85381 21.8472C6.70581 21.6528 6.55582 21.4571 6.40582 21.2601L6.1508 20.9251C4.66278 18.9744 2.97575 16.7636 2.73375 14.1803C2.35075 10.1 4.25178 7.31756 5.9128 5.70201C8.03483 3.63747 10.5969 2.59064 13.5249 2.59064C13.8599 2.59064 14.2029 2.60475 14.5459 2.63267C19.714 3.05225 23.89 7.24016 24.261 12.3742C24.535 16.185 22.712 18.5733 20.948 20.8832Z" fill="#231F20"/>
<path d="M8 34H19" stroke="black" stroke-width="1.5"/>
</svg>
