<svg width="39" height="41" viewBox="0 0 39 41" fill="none" xmlns="http://www.w3.org/2000/svg">
<path d="M29.7523 5.48104C29.7566 5.41308 29.7566 5.34499 29.7523 5.27702C29.7258 3.86826 29.1919 2.52682 28.2649 1.54039C27.3379 0.553963 26.0916 0.000887004 24.7933 1.06636e-06C23.4951 -0.000884871 22.248 0.550294 21.3199 1.53546C20.3916 2.52062 19.856 3.86117 19.8279 5.26994C20.2098 7.93066 21.2127 8.76914 21.9925 10.7378L11.139 10.5061L10.9276 22.1869C8.87087 21.3169 7.39364 19.7531 5.64883 19.7168C5.58575 19.7124 5.52245 19.7124 5.45937 19.7168C4.16168 19.745 2.92593 20.324 2.01697 21.3296C1.108 22.3351 0.598372 23.6872 0.597231 25.0958C0.59609 26.5043 1.10355 27.8574 2.01081 28.8646C2.91817 29.8719 4.15302 30.4533 5.45059 30.4841C8.04734 30.0459 8.76011 28.8484 10.8197 27.9887L10.6011 39.9219L21.502 40.1544C20.7207 38.1058 19.6837 37.2863 19.2952 34.5765C19.3232 33.168 19.8586 31.8276 20.7866 30.8425C21.7146 29.8574 22.9614 29.3062 24.2595 29.3071C25.5575 29.3078 26.8037 29.8606 27.7306 30.8469C28.6576 31.8331 29.1916 33.1743 29.218 34.5828C29.2217 34.651 29.2217 34.7195 29.218 34.7877C29.1852 36.6069 27.8514 38.165 27.0316 40.2722L37.7051 40.5L38.2379 11.0764L27.6037 10.8501C28.4317 8.80305 29.7201 7.27178 29.7523 5.48104Z" fill="black"/>
</svg>
